<svg width="110" height="20" viewBox="0 0 110 20" fill="none" xmlns="http://www.w3.org/2000/svg">
<path d="M8.12796 4.50694C9.18349 2.6134 9.71124 1.66663 10.5003 1.66663C11.2894 1.66663 11.8172 2.61339 12.8727 4.50693L13.1457 4.99682C13.4457 5.5349 13.5957 5.80395 13.8296 5.98147C14.0634 6.15898 14.3546 6.22488 14.9371 6.35667L15.4674 6.47665C17.5171 6.94043 18.542 7.17231 18.7858 7.9564C19.0297 8.74046 18.331 9.55754 16.9336 11.1915L16.5721 11.6143C16.175 12.0786 15.9764 12.3108 15.8871 12.598C15.7978 12.8853 15.8278 13.195 15.8878 13.8146L15.9425 14.3786C16.1537 16.5588 16.2594 17.6489 15.6211 18.1335C14.9827 18.618 14.0231 18.1762 12.1039 17.2926L11.6074 17.064C11.0621 16.8129 10.7894 16.6873 10.5003 16.6873C10.2112 16.6873 9.93858 16.8129 9.39324 17.064L8.89674 17.2926C6.97756 18.1762 6.01798 18.618 5.37962 18.1335C4.74126 17.6489 4.84689 16.5588 5.05816 14.3786L5.11281 13.8146C5.17285 13.195 5.20287 12.8853 5.11354 12.598C5.02423 12.3108 4.82569 12.0786 4.42859 11.6143L4.06708 11.1915C2.6697 9.55754 1.97101 8.74046 2.21484 7.9564C2.45868 7.17231 3.48354 6.94043 5.53328 6.47665L6.06357 6.35667C6.64604 6.22488 6.93727 6.15898 7.17111 5.98147C7.40495 5.80395 7.55494 5.53491 7.85489 4.99682L8.12796 4.50694Z" fill="#D5AD47"/>
<path d="M30.128 4.50694C31.1835 2.6134 31.7112 1.66663 32.5003 1.66663C33.2894 1.66663 33.8172 2.61339 34.8727 4.50693L35.1457 4.99682C35.4457 5.5349 35.5957 5.80395 35.8296 5.98147C36.0634 6.15898 36.3546 6.22488 36.9371 6.35667L37.4674 6.47665C39.5171 6.94043 40.542 7.17231 40.7858 7.9564C41.0297 8.74046 40.331 9.55754 38.9336 11.1915L38.5721 11.6143C38.175 12.0786 37.9764 12.3108 37.8871 12.598C37.7978 12.8853 37.8278 13.195 37.8878 13.8146L37.9425 14.3786C38.1537 16.5588 38.2594 17.6489 37.6211 18.1335C36.9827 18.618 36.0231 18.1762 34.1039 17.2926L33.6074 17.064C33.0621 16.8129 32.7894 16.6873 32.5003 16.6873C32.2112 16.6873 31.9386 16.8129 31.3932 17.064L30.8967 17.2926C28.9776 18.1762 28.018 18.618 27.3796 18.1335C26.7413 17.6489 26.8469 16.5588 27.0582 14.3786L27.1128 13.8146C27.1729 13.195 27.2029 12.8853 27.1135 12.598C27.0242 12.3108 26.8257 12.0786 26.4286 11.6143L26.0671 11.1915C24.6697 9.55754 23.971 8.74046 24.2148 7.9564C24.4587 7.17231 25.4835 6.94043 27.5333 6.47665L28.0636 6.35667C28.646 6.22488 28.9373 6.15898 29.1711 5.98147C29.405 5.80395 29.5549 5.53491 29.8549 4.99682L30.128 4.50694Z" fill="#D5AD47"/>
<path d="M52.509 4.50694C53.6173 2.6134 54.1715 1.66663 55 1.66663C55.8285 1.66663 56.3827 2.61339 57.491 4.50693L57.7777 4.99682C58.0927 5.5349 58.2501 5.80395 58.4957 5.98147C58.7412 6.15898 59.047 6.22488 59.6586 6.35667L60.2154 6.47665C62.3676 6.94043 63.4438 7.17231 63.6998 7.9564C63.9558 8.74046 63.2222 9.55754 61.7549 11.1915L61.3753 11.6143C60.9584 12.0786 60.7499 12.3108 60.6561 12.598C60.5624 12.8853 60.5939 13.195 60.6569 13.8146L60.7143 14.3786C60.9361 16.5588 61.047 17.6489 60.3768 18.1335C59.7065 18.618 58.6989 18.1762 56.6838 17.2926L56.1624 17.064C55.5898 16.8129 55.3035 16.6873 55 16.6873C54.6965 16.6873 54.4102 16.8129 53.8376 17.064L53.3162 17.2926C51.3011 18.1762 50.2935 18.618 49.6233 18.1335C48.953 17.6489 49.0639 16.5588 49.2857 14.3786L49.3431 13.8146C49.4062 13.195 49.4377 12.8853 49.3439 12.598C49.2501 12.3108 49.0416 12.0786 48.6247 11.6143L48.2451 11.1915C46.7778 9.55754 46.0442 8.74046 46.3002 7.9564C46.5563 7.17231 47.6324 6.94043 49.7846 6.47665L50.3414 6.35667C50.953 6.22488 51.2588 6.15898 51.5043 5.98147C51.7499 5.80395 51.9073 5.53491 52.2223 4.99682L52.509 4.50694Z" fill="#D5AD47"/>
<path d="M75.128 4.50694C76.1835 2.6134 76.7112 1.66663 77.5003 1.66663C78.2894 1.66663 78.8172 2.61339 79.8727 4.50693L80.1457 4.99682C80.4457 5.5349 80.5957 5.80395 80.8296 5.98147C81.0634 6.15898 81.3546 6.22488 81.9371 6.35667L82.4674 6.47665C84.5171 6.94043 85.542 7.17231 85.7858 7.9564C86.0297 8.74046 85.331 9.55754 83.9336 11.1915L83.5721 11.6143C83.175 12.0786 82.9764 12.3108 82.8871 12.598C82.7978 12.8853 82.8278 13.195 82.8878 13.8146L82.9425 14.3786C83.1537 16.5588 83.2594 17.6489 82.6211 18.1335C81.9827 18.618 81.0231 18.1762 79.1039 17.2926L78.6074 17.064C78.0621 16.8129 77.7894 16.6873 77.5003 16.6873C77.2112 16.6873 76.9386 16.8129 76.3932 17.064L75.8967 17.2926C73.9776 18.1762 73.018 18.618 72.3796 18.1335C71.7413 17.6489 71.8469 16.5588 72.0582 14.3786L72.1128 13.8146C72.1729 13.195 72.2029 12.8853 72.1135 12.598C72.0242 12.3108 71.8257 12.0786 71.4286 11.6143L71.0671 11.1915C69.6697 9.55754 68.971 8.74046 69.2148 7.9564C69.4587 7.17231 70.4835 6.94043 72.5333 6.47665L73.0636 6.35667C73.646 6.22488 73.9373 6.15898 74.1711 5.98147C74.405 5.80395 74.5549 5.53491 74.8549 4.99682L75.128 4.50694Z" fill="#D5AD47"/>
<path d="M97.128 4.50694C98.1835 2.6134 98.7112 1.66663 99.5003 1.66663C100.289 1.66663 100.817 2.61339 101.873 4.50693L102.146 4.99682C102.446 5.5349 102.596 5.80395 102.83 5.98147C103.063 6.15898 103.355 6.22488 103.937 6.35667L104.467 6.47665C106.517 6.94043 107.542 7.17231 107.786 7.9564C108.03 8.74046 107.331 9.55754 105.934 11.1915L105.572 11.6143C105.175 12.0786 104.976 12.3108 104.887 12.598C104.798 12.8853 104.828 13.195 104.888 13.8146L104.942 14.3786C105.154 16.5588 105.259 17.6489 104.621 18.1335C103.983 18.618 103.023 18.1762 101.104 17.2926L100.607 17.064C100.062 16.8129 99.7894 16.6873 99.5003 16.6873C99.2112 16.6873 98.9386 16.8129 98.3932 17.064L97.8967 17.2926C95.9776 18.1762 95.018 18.618 94.3796 18.1335C93.7413 17.6489 93.8469 16.5588 94.0582 14.3786L94.1128 13.8146C94.1729 13.195 94.2029 12.8853 94.1135 12.598C94.0242 12.3108 93.8257 12.0786 93.4286 11.6143L93.0671 11.1915C91.6697 9.55754 90.971 8.74046 91.2148 7.9564C91.4587 7.17231 92.4835 6.94043 94.5333 6.47665L95.0636 6.35667C95.646 6.22488 95.9373 6.15898 96.1711 5.98147C96.405 5.80395 96.5549 5.53491 96.8549 4.99682L97.128 4.50694Z" fill="#3C2B00"/>
</svg>
