<svg width="316" height="315" viewBox="0 0 316 315" fill="none" xmlns="http://www.w3.org/2000/svg">
<path d="M315 0H0V315H315V0Z" fill="#A24502" fill-opacity="0.1"/>
<path d="M151.572 22.6825C151.57 40.3603 146.893 57.723 138.014 73.008C129.134 88.2931 116.37 100.956 101.016 109.712C85.6623 118.467 68.2656 123.004 50.5923 122.86C32.9189 122.717 15.5982 117.898 0.388428 108.895V0H148.983C150.712 7.43655 151.581 15.0474 151.572 22.6825Z" fill="#A24502" fill-opacity="0.5"/>
<path d="M232.444 146.779C265.842 146.779 292.917 119.698 292.917 86.2922C292.917 52.8864 265.842 25.8057 232.444 25.8057C199.046 25.8057 171.971 52.8864 171.971 86.2922C171.971 119.698 199.046 146.779 232.444 146.779Z" fill="#A24502" fill-opacity="0.4"/>
<path d="M96.3792 258.301C120.384 258.301 139.844 238.837 139.844 214.826C139.844 190.816 120.384 171.352 96.3792 171.352C72.3741 171.352 52.9141 190.816 52.9141 214.826C52.9141 238.837 72.3741 258.301 96.3792 258.301Z" fill="#A24502" fill-opacity="0.3"/>
<path d="M315.254 263.293V314.706H253.061C250.42 306.436 250.315 297.564 252.759 289.234C255.204 280.904 260.086 273.496 266.776 267.965C273.467 262.434 281.659 259.033 290.299 258.2C298.939 257.368 307.63 259.141 315.254 263.293Z" fill="#A24502" fill-opacity="0.2"/>
<path d="M205.987 224.277C212.249 224.277 217.326 219.2 217.326 212.936C217.326 206.672 212.249 201.595 205.987 201.595C199.725 201.595 194.648 206.672 194.648 212.936C194.648 219.2 199.725 224.277 205.987 224.277Z" fill="#A24502" fill-opacity="0.3"/>
</svg>
