<svg width="250" height="250" viewBox="0 0 250 250" fill="none" xmlns="http://www.w3.org/2000/svg">
<path d="M250 0H0V250H250V0Z" fill="#A24502" fill-opacity="0.1"/>
<path d="M250 62.1987V67.9367C246.19 65.4123 243.114 61.9262 241.085 57.8312C237.756 51.0241 237.862 43.1777 237.967 35.5873C238.088 26.5663 238.208 18.0572 232.485 12.5151C226.19 6.43067 216.115 7.2891 206.371 8.11749C205.226 8.20785 204.081 8.31319 202.952 8.40354C193.178 9.14157 182.289 6.67167 177.003 0H183.6C188.434 3.25297 195.829 4.39756 202.621 3.88547C203.72 3.81018 204.85 3.70475 205.979 3.61439C216.235 2.74096 227.862 1.74694 235.618 9.26198C242.756 16.1596 242.621 26.0693 242.485 35.6475C242.38 42.7108 242.289 50 245.151 55.8433C246.338 58.2573 247.985 60.4163 250 62.1987Z" fill="#A24502" fill-opacity="0.2"/>
<path d="M250 101.882V108.599C248.903 107.166 247.672 105.84 246.325 104.638C238.554 97.7861 227.394 96.2801 216.611 94.8042C215.211 94.6234 213.84 94.4277 212.47 94.2319C194.985 91.7168 184.141 85.7077 179.337 75.9035C176.009 69.0964 176.114 61.2499 176.22 53.6596C176.34 44.6385 176.461 36.1295 170.738 30.5873C164.443 24.5029 154.367 25.3614 144.623 26.1898C143.479 26.2801 142.334 26.3855 141.205 26.4758C128.644 27.4246 114.232 23.0723 112.259 11.3102C111.581 7.27402 112.59 3.56926 114.081 0H119.021C117.364 3.58434 116.129 7.04819 116.717 10.5572C118.208 19.5331 130.286 22.756 140.873 21.9578C141.973 21.8825 143.102 21.777 144.232 21.6867C154.488 20.8133 166.114 19.8192 173.87 27.3343C181.009 34.2319 180.873 44.1415 180.738 53.7198C180.632 60.7831 180.542 68.0723 183.404 73.9155C187.5 82.2892 197.214 87.4698 213.117 89.7589C214.473 89.9547 215.843 90.1505 217.214 90.3312C228.66 91.8825 240.512 93.4938 249.322 101.25C249.548 101.446 249.774 101.657 250 101.882Z" fill="#A24502" fill-opacity="0.4"/>
<path d="M250 215.105V224.382C244.563 218.599 240.015 210.662 236.536 200.738C235.798 198.629 235.09 196.476 234.383 194.322C230.482 182.53 226.446 170.346 216.837 162.56C206.566 154.247 191.853 152.41 177.621 150.632C175.798 150.407 173.976 150.181 172.169 149.94C149.096 146.882 134.804 139.608 128.464 127.711C124.066 119.443 124.202 109.925 124.337 100.723C124.503 89.7891 124.669 79.4578 117.109 72.7409C108.81 65.3613 95.5121 66.4005 82.6658 67.4096C81.1447 67.53 79.6387 67.6505 78.1628 67.7559C61.5814 68.9005 42.5604 63.6295 39.9699 49.3674C38.6898 42.3795 41.9579 36.1897 45.1055 30.1957C46.9128 26.762 48.6296 23.4939 49.5031 20.1355C51.3405 13.2228 49.0664 5.43672 44.0211 0H51.4007C53.5302 3.09276 54.9791 6.60229 55.6515 10.2966C56.3239 13.9909 56.2045 17.7859 55.3012 21.4307C54.2622 25.3614 52.3344 29.0361 50.4669 32.5904C47.5904 38.0422 44.8946 43.1927 45.8434 48.4638C47.8314 59.3372 63.7501 63.2529 77.7109 62.2891C79.1718 62.1836 80.6627 62.0631 82.1537 61.9578C95.6778 60.8885 111.009 59.6988 121.25 68.8102C130.663 77.1686 130.482 89.1866 130.301 100.798C130.181 109.367 130.045 118.208 133.81 125.301C139.217 135.437 152.048 141.732 173.027 144.518C174.804 144.759 176.612 144.985 178.419 145.211C193.539 147.093 209.157 149.036 220.768 158.449C231.657 167.274 235.949 180.211 240.075 192.726C240.783 194.864 241.491 196.973 242.214 199.066C244.129 204.717 246.745 210.105 250 215.105Z" fill="#A24502" fill-opacity="0.5"/>
<path d="M0 100.949C6.86747 109.262 21.4307 112.334 34.488 111.43C35.9639 111.325 37.4699 111.205 38.991 111.084C51.8374 110.075 65.1356 109.036 73.4337 116.415C80.994 123.132 80.8283 133.464 80.6627 144.397C80.5271 153.599 80.3916 163.117 84.7892 171.385C91.1295 183.283 105.422 190.557 128.494 193.614C130.301 193.855 132.123 194.081 133.946 194.307C148.178 196.084 162.892 197.921 173.163 206.235C182.771 214.021 186.807 226.204 190.708 237.997C191.416 240.15 192.124 242.304 192.861 244.412C193.539 246.355 194.262 248.207 195.015 250H201.461C200.331 247.545 199.367 245.09 198.539 242.741C197.816 240.647 197.108 238.539 196.401 236.4C192.274 223.885 187.982 210.948 177.093 202.123C165.482 192.711 149.865 190.768 134.744 188.885C132.937 188.659 131.13 188.433 129.352 188.192C108.374 185.406 95.5422 179.111 90.1356 168.976C86.3705 161.882 86.506 153.042 86.6266 144.473C86.8073 132.861 86.988 120.843 77.5754 112.485C67.3344 103.373 52.0031 104.563 38.479 105.632C36.988 105.738 35.497 105.858 34.0362 105.964C20.0753 106.928 4.15666 103.012 2.16871 92.1384C1.21995 86.8673 3.9157 81.7167 6.79221 76.2649C8.65967 72.7107 10.5874 69.036 11.6265 65.1053C14.4579 54.3523 9.68377 42.4397 3.3888e-05 35.9336V43.3131C5.28618 48.765 7.69584 56.7318 5.82835 63.8101C4.95486 67.1685 3.23799 70.4366 1.43076 73.8703C0.948834 74.789 0.46689 75.6926 3.3888e-05 76.6263L0 100.949Z" fill="#A24502" fill-opacity="0.4"/>
<path d="M110.587 250H104.337C104.006 249.021 103.69 248.027 103.358 247.033C99.4578 235.241 95.4216 223.057 85.8132 215.271C75.5421 206.958 60.8283 205.12 46.5964 203.343C44.7741 203.117 42.9518 202.891 41.1446 202.651C20.7831 199.955 7.24397 193.961 0 184.413V169.428C0.465564 172.419 1.40612 175.317 2.78611 178.012C8.19278 188.148 21.0241 194.443 42.003 197.229C43.7801 197.47 45.5874 197.696 47.3945 197.922C62.5151 199.804 78.1325 201.747 89.744 211.16C100.633 219.985 104.925 232.922 109.051 245.437C109.563 246.973 110.06 248.494 110.587 250Z" fill="#A24502" fill-opacity="0.2"/>
</svg>
