<svg width="20" height="20" viewBox="0 0 20 20" fill="none" xmlns="http://www.w3.org/2000/svg">
<g>
<path d="M16.6666 10.833H3.33331C2.74998 10.833 2.41664 11.333 2.49998 11.833L3.66664 16.9997C3.83331 17.7497 4.49998 18.333 5.33331 18.333H14.5833C15.4166 18.333 16.0833 17.7497 16.25 16.9997L17.4166 11.833C17.5833 11.333 17.1666 10.833 16.6666 10.833ZM9.16664 14.9997C9.16664 15.4163 8.83331 15.833 8.33331 15.833C7.83331 15.833 7.49998 15.4163 7.49998 14.9997V13.333C7.49998 12.9163 7.83331 12.4997 8.33331 12.4997C8.83331 12.4997 9.16664 12.9163 9.16664 13.333V14.9997ZM12.5 14.9997C12.5 15.4163 12.1666 15.833 11.6666 15.833C11.1666 15.833 10.8333 15.4163 10.8333 14.9997V13.333C10.8333 12.9163 11.1666 12.4997 11.6666 12.4997C12.1666 12.4997 12.5 12.9163 12.5 13.333V14.9997Z" fill="white"/>
<path d="M17.5002 6.6665H15.6668L14.0835 2.6665C13.7502 1.83317 12.7502 1.4165 11.9168 1.74984C11.0835 2.08317 10.6668 3.08317 11.0002 3.9165L12.0835 6.6665H7.91683L9.00016 3.9165C9.3335 3.08317 8.91683 2.08317 8.0835 1.74984C7.25016 1.4165 6.25016 1.83317 5.91683 2.6665L4.3335 6.6665H2.50016C1.5835 6.6665 0.833496 7.4165 0.833496 8.33317V9.1665C0.833496 9.6665 1.16683 9.99984 1.66683 9.99984H18.3335C18.8335 9.99984 19.1668 9.6665 19.1668 9.1665V8.33317C19.1668 7.4165 18.4168 6.6665 17.5002 6.6665Z" fill="white"/>
</g>
</svg>
