<svg width="15" height="15" viewBox="0 0 15 15" fill="none" xmlns="http://www.w3.org/2000/svg">
<g opacity="0.38" clip-path="url(#clip0_969_1630)">
<path d="M13.7792 2.29789C13.5594 2.2004 13.3054 2.25477 13.1369 2.4335L7.0714 8.86638L1.00591 2.4335C0.837381 2.25477 0.583971 2.20101 0.363597 2.29789C0.143196 2.39413 0 2.62287 0 2.87537V6.00026C0 6.16651 0.0618748 6.32524 0.172669 6.44213L6.6548 13.3169C6.76971 13.4387 6.92055 13.5 7.07143 13.5C7.2223 13.5 7.37315 13.4387 7.48806 13.3169L13.9702 6.44213C14.081 6.32527 14.1429 6.16651 14.1429 6.00026V2.87537C14.1428 2.62287 13.9996 2.39413 13.7792 2.29789Z" fill="white"/>
</g>
<defs>
<clipPath id="clip0_969_1630">
<rect width="14.1429" height="15" fill="white"/>
</clipPath>
</defs>
</svg>
