<svg width="454" height="184" viewBox="0 0 454 184" fill="none" xmlns="http://www.w3.org/2000/svg">
<path opacity="0.87" d="M190.994 72.0497C190.994 66.9456 194.36 64.4411 198.011 64.4411C207.815 64.4411 209.071 77.8299 217.144 77.8299C220.12 77.8299 223.201 76.9634 223.201 72.821C223.201 68.2978 219.645 65.7933 209.641 60.6892C197.241 54.328 193.685 47.2051 193.685 39.6917C193.685 27.7503 202.823 19.1799 219.455 19.1799C236.086 19.1799 244.55 26.7885 244.55 34.3019C244.55 38.349 241.573 41.3296 237.722 41.3296C227.053 41.3296 226.473 28.8073 219.93 28.8073C216.659 28.8073 214.158 30.4452 214.158 34.1972C214.158 37.9491 217.239 42.2819 228.489 47.1003C238.197 51.2427 245.215 57.0229 245.215 67.6121C245.215 78.2013 237.427 87.4478 217.905 87.4478C202.614 87.4478 190.984 80.1249 190.984 72.0402L190.994 72.0497Z" fill="white"/>
<path opacity="0.87" d="M248.696 101.703C248.696 99.9699 250.236 98.9129 251.387 97.1798C252.062 96.218 252.537 95.0658 252.537 93.4279L252.442 54.3374C252.442 50.5855 251.292 49.0428 249.941 47.8906C248.496 46.6431 246.86 46.1574 246.86 43.653C246.86 39.8058 259.65 36.4348 265.422 36.4348C267.828 36.4348 269.369 37.9775 269.369 41.6342V43.3673H269.949C273.03 39.1297 278.412 36.53 284.184 36.53C295.918 36.53 305.047 44.3291 305.047 62.3364C305.047 76.3919 297.164 87.4667 282.929 87.4667C278.317 87.4667 275.236 86.4097 272.545 84.9622V90.8377C272.545 92.6661 273.6 93.6279 274.951 94.304C276.871 95.2658 278.602 95.8466 278.602 98.1511C278.602 101.998 271.099 103.16 265.337 104.122C256.778 105.664 248.705 106.341 248.705 101.713L248.696 101.703ZM285.81 70.2212C285.81 63.003 282.929 49.0333 276.871 49.0333C273.125 49.0333 272.545 52.4995 272.545 56.5467V57.6037C272.545 69.4498 276.872 77.725 281.483 77.725C283.794 77.725 285.81 76.0871 285.81 70.2117V70.2212Z" fill="white"/>
<path opacity="0.87" d="M309.754 82.3532C309.754 78.6965 313.406 78.5061 313.406 74.6494V54.2328C313.406 49.8048 311.866 48.6526 310.43 47.4908C309.184 46.6242 308.024 45.8529 308.024 43.8341C308.024 39.987 320.814 36.6159 326.586 36.6159C331.198 36.6159 333.604 39.1204 333.604 42.0058V74.6494C333.604 78.4965 337.255 78.6965 337.255 82.3532C337.255 85.8195 334.079 86.1052 330.713 86.1052H316.287C312.921 86.1052 309.745 85.8195 309.745 82.3532H309.754ZM310.905 21.3035C310.905 15.0471 315.517 11 322.735 11C329.952 11 334.564 15.0471 334.564 21.3035C334.564 27.5599 329.952 31.7022 322.735 31.7022C315.517 31.7022 310.905 27.5599 310.905 21.3035Z" fill="white"/>
<path opacity="0.87" d="M398.029 81.582C398.029 84.2769 396.678 86.1053 392.066 86.1053H375.045C370.528 86.1053 369.083 84.4674 369.083 82.1534C369.083 79.3632 371.488 78.4967 371.488 76.4683C371.488 75.8875 371.298 75.1161 370.528 74.1543L367.447 69.6311L365.041 70.4976V79.5537C365.041 81.1916 364.851 82.639 364.176 83.7913C363.31 85.2387 361.58 86.1053 358.118 86.1053H347.639C344.273 86.1053 341.097 85.8196 341.097 82.3533C341.097 78.6966 344.748 78.5062 344.748 74.6495V31.7976C344.748 27.3695 343.208 26.2173 341.772 25.0555C340.526 24.189 339.366 23.4176 339.366 21.3988C339.366 17.5517 352.156 14.1807 357.928 14.1807C362.54 14.1807 364.946 16.6851 364.946 19.5705L365.041 60.2036C371.679 58.5657 375.235 55.5852 377.641 53.1759C380.427 50.481 376.395 48.4527 376.395 44.7008C376.395 39.3109 380.437 36.616 386.304 36.616C391.306 36.616 394.957 39.987 394.957 44.9007C394.957 51.4523 389.575 57.3183 382.652 61.9463L391.211 73.402C393.426 76.3826 398.038 76.6778 398.038 81.5915L398.029 81.582Z" fill="white"/>
<path opacity="0.87" d="M406.492 96.9896C406.492 93.3329 408.993 90.3428 412.739 90.3428C415.716 90.3428 417.646 93.3234 421.678 93.3234C426.585 93.3234 429.276 88.8001 431.102 82.8294C430.332 83.2103 429.086 83.6007 426.965 83.6007C418.797 83.6007 415.041 79.4584 412.159 73.0116C409.278 65.9838 406.197 58.8609 403.506 51.8237C401.87 47.3956 397.449 48.2622 397.449 42.3867C397.449 39.4061 399.56 37.9587 404.856 37.9587H422.743C428.325 37.9587 429.286 39.8822 429.286 42.101C429.286 47.6908 424.959 46.6243 424.959 50.5762C424.959 54.1377 427.365 60.0131 429.771 66.0791C430.541 68.0979 431.016 69.4501 433.327 69.4501C435.638 69.4501 436.503 66.4695 437.273 63.3842C437.948 60.4988 438.234 58.9561 438.329 57.1278C438.519 52.5093 434.382 49.7096 434.382 44.3198C434.382 39.2157 438.034 36.5208 444.576 36.5208C451.119 36.5208 454 40.0822 454 44.7102C454 48.4622 450.729 54.052 449.283 59.1561C447.838 64.4507 446.107 69.7453 444.472 74.5637C442.741 79.8583 440.43 84.772 438.319 89.0096C433.413 98.9322 427.26 105.379 418.512 105.379C411.399 105.379 406.492 101.818 406.492 96.9991V96.9896Z" fill="white"/>
<path opacity="0.87" d="M192.658 148.088C192.658 144.412 195.083 142.613 197.717 142.613C204.782 142.613 205.685 152.25 211.496 152.25C213.645 152.25 215.86 151.621 215.86 148.64C215.86 145.384 213.302 143.574 206.094 139.899C197.156 135.318 194.598 130.186 194.598 124.777C194.598 116.178 201.178 110.007 213.16 110.007C225.141 110.007 231.237 115.483 231.237 120.891C231.237 123.805 229.088 125.958 226.32 125.958C218.637 125.958 218.219 116.94 213.511 116.94C211.153 116.94 209.356 118.12 209.356 120.825C209.356 123.529 211.572 126.653 219.673 130.119C226.672 133.1 231.722 137.261 231.722 144.889C231.722 152.516 226.111 159.173 212.057 159.173C201.045 159.173 192.667 153.897 192.667 148.079L192.658 148.088Z" fill="white"/>
<path opacity="0.87" d="M234.204 169.457C234.204 168.209 235.316 167.448 236.143 166.2C236.628 165.505 236.971 164.677 236.971 163.496L236.904 135.337C236.904 132.633 236.077 131.519 235.107 130.69C234.07 129.786 232.891 129.443 232.891 127.643C232.891 124.872 242.106 122.444 246.261 122.444C247.992 122.444 249.104 123.558 249.104 126.186V127.433H249.523C251.739 124.386 255.618 122.51 259.774 122.51C268.228 122.51 274.798 128.129 274.798 141.098C274.798 151.221 269.121 159.201 258.87 159.201C255.542 159.201 253.327 158.439 251.387 157.401V161.629C251.387 162.943 252.147 163.639 253.117 164.124C254.506 164.819 255.751 165.238 255.751 166.895C255.751 169.666 250.35 170.504 246.195 171.2C240.033 172.314 234.213 172.79 234.213 169.466L234.204 169.457ZM260.943 146.774C260.943 141.575 258.861 131.519 254.506 131.519C251.805 131.519 251.387 134.014 251.387 136.928V137.689C251.387 146.222 254.506 152.183 257.824 152.183C259.489 152.183 260.943 151.002 260.943 146.774Z" fill="white"/>
<path opacity="0.87" d="M278.184 155.516C278.184 152.878 280.818 152.745 280.818 149.964V135.471C280.818 132.557 279.848 131.452 278.878 130.681C277.908 129.852 276.871 129.433 276.871 127.767C276.871 124.996 285.877 122.567 290.308 122.567C292.733 122.567 293.56 123.605 293.56 126.31V129.5H293.979C295.576 124.786 299.38 122.567 302.499 122.567C307.206 122.567 309.422 125.615 309.422 130.128C309.422 134.642 307.063 137.337 302.565 137.337C300.141 137.337 299.522 136.575 297.373 136.575C296.128 136.575 295.367 137.337 295.367 139.422V149.964C295.367 152.735 298.001 152.878 298.001 155.516C298.001 158.011 295.719 158.22 293.294 158.22H282.91C280.485 158.22 278.203 158.011 278.203 155.516H278.184Z" fill="white"/>
<path opacity="0.87" d="M349.997 144.489V131.728C349.997 130.338 349.37 129.786 348.752 129.3C347.924 128.671 346.954 128.329 346.954 126.805C346.954 125.691 347.649 125.005 349.237 124.52C355.189 122.644 358.584 122.434 360.315 122.434C363.71 122.434 364.537 123.958 364.537 127.633V142.336C364.537 146.012 365.298 148.298 367.865 148.298C370.29 148.298 371.051 145.803 371.051 142.336V131.728C371.051 130.338 370.423 129.786 369.805 129.3C368.978 128.671 368.008 128.329 368.008 126.805C368.008 125.691 368.702 125.005 370.29 124.52C374.655 122.786 379.362 122.434 381.302 122.434C384.697 122.434 385.59 124.101 385.59 127.776V146.431C385.59 149.345 386.56 150.383 387.53 151.145C388.5 151.973 389.537 152.392 389.537 154.059C389.537 156.83 380.532 159.258 376.1 159.258C373.675 159.258 372.848 158.144 372.848 155.516V152.878H372.43C370.347 156.897 366.477 159.192 361.694 159.192C353.449 159.192 349.988 153.64 349.988 144.489H349.997Z" fill="white"/>
<path opacity="0.87" d="M394.396 140.118V130.062H392.808C391.144 129.995 389.898 128.881 389.898 126.938C389.898 124.167 391.562 123.539 393.569 123.539H394.539C403.753 123.539 401.604 111.607 406.378 111.607C408.46 111.607 408.869 113.131 408.869 116.463V123.539H414.898C416.838 123.539 418.359 124.234 418.359 126.519C418.359 128.805 417.456 130.052 414.556 130.052H408.945V149.06C408.945 151.488 409.288 152.669 410.819 152.669C412.131 152.669 412.968 151.554 412.968 146.917C412.968 143.86 414.489 142.06 417.19 142.06C419.89 142.06 421.478 143.793 421.478 147.336C421.478 153.373 418.15 159.192 408.527 159.192C394.263 159.192 394.396 147.612 394.396 140.118Z" fill="white"/>
<path opacity="0.87" d="M422.791 149.964C422.791 147.679 424.664 145.736 426.804 145.736C433.032 145.736 433.593 152.745 437.121 152.745C438.433 152.745 439.337 152.116 439.337 150.669C439.337 148.869 438.091 147.336 432.823 144.917C426.794 142.146 423.751 139.365 423.751 133.68C423.751 126.329 430.75 122.51 438.367 122.51C448.066 122.51 453.192 126.529 453.192 131.109C453.192 133.395 451.318 135.337 449.179 135.337C442.95 135.337 443.15 129.024 438.928 129.024C437.749 129.024 436.921 129.719 436.921 130.824C436.921 132.49 437.264 133.461 443.568 136.575C449.388 139.489 452.992 142.327 452.992 148.021C452.992 154.611 446.963 159.192 437.616 159.192C428.268 159.192 422.791 154.544 422.791 149.964Z" fill="white"/>
<path opacity="0.87" d="M315.032 132.414L315.165 139.156C315.175 139.718 314.633 140.127 314.091 139.956L306.616 137.594C306.027 137.404 305.447 137.918 305.57 138.527C307.938 149.897 313.254 158.849 327.118 158.849C340.983 158.849 345.699 150.726 348.6 138.613C348.752 137.984 348.153 137.451 347.544 137.661L340.85 139.965C340.355 140.137 339.823 139.803 339.766 139.28L338.995 132.261C338.929 131.614 338.168 131.3 337.655 131.709L332.405 135.975C332.006 136.299 331.416 136.185 331.169 135.728L327.87 129.728C327.546 129.147 326.709 129.167 326.415 129.757L323.438 135.728C323.21 136.185 322.63 136.328 322.221 136.023L316.344 131.738C315.793 131.338 315.023 131.738 315.042 132.423L315.032 132.414Z" fill="url(#paint0_linear_969_340)"/>
<path d="M161.265 70.2008C157.789 88.7075 143.521 102.501 124.925 105.326C114.02 107.001 111.494 116.065 110.969 118.808C110.461 121.55 109.51 130.927 119.054 136.444L137.651 147.2C140.947 159.516 144.161 171.52 147.49 184L105.591 159.779C89.3063 150.369 81.0249 132.322 84.5178 113.816C87.9944 95.3089 102.262 81.5314 120.858 78.6906C131.763 77.0156 134.289 67.9511 134.814 65.2087C135.322 62.4664 136.273 53.0899 126.729 47.5559L108.132 36.8C104.853 24.5333 101.573 12.2667 98.293 0L140.192 24.2213C156.477 33.6307 164.758 51.6776 161.265 70.1844V70.2008Z" fill="url(#paint1_linear_969_340)"/>
<path d="M0.784561 70.2007C4.26115 88.7074 18.5283 102.501 37.1248 105.326C48.0301 107.001 50.5556 116.065 51.0803 118.808C51.5887 121.55 52.5398 130.926 42.9956 136.444L24.3991 147.2C21.1029 159.516 17.8887 171.52 14.5597 184L56.4592 159.779C72.7434 150.369 81.0249 132.322 77.5319 113.816C74.0553 95.3088 59.7882 81.5314 41.1917 78.6905C30.2864 77.0155 27.7609 67.951 27.2362 65.2087C26.7278 62.4663 25.7767 53.0898 35.3209 47.5558L53.9174 36.7999C57.1972 24.5497 60.477 12.283 63.7568 0.0163574L21.8573 24.2377C5.57307 33.6635 -2.69203 51.694 0.784561 70.2007Z" fill="url(#paint2_linear_969_340)"/>
<path d="M61.3133 41.3814L61.5265 52.4001C61.5429 53.3197 60.6574 53.9929 59.7718 53.7138L47.5546 49.8548C46.587 49.5428 45.6359 50.3803 45.8491 51.382C49.7192 69.9544 58.4107 84.5857 81.0577 84.5857C103.705 84.5857 111.429 71.3173 116.168 51.5133C116.414 50.4952 115.43 49.6085 114.43 49.9533L103.492 53.7302C102.672 54.0094 101.802 53.4675 101.72 52.5971L100.458 41.1351C100.343 40.0677 99.0966 39.5587 98.2767 40.2319L89.7 47.1945C89.0441 47.72 88.0765 47.5394 87.6665 46.8004L82.2713 36.997C81.7465 36.0445 80.369 36.0774 79.8934 37.0462L75.0229 46.8004C74.6457 47.5394 73.6946 47.7693 73.0222 47.2931L63.4124 40.2976C62.5105 39.6408 61.2477 40.2976 61.2805 41.4143L61.3133 41.3814Z" fill="url(#paint3_linear_969_340)"/>
<defs>
<linearGradient id="paint0_linear_969_340" x1="327.089" y1="129.303" x2="327.089" y2="158.849" gradientUnits="userSpaceOnUse">
<stop stop-color="#83C949"/>
<stop offset="1" stop-color="#A24502"/>
</linearGradient>
<linearGradient id="paint1_linear_969_340" x1="122.892" y1="0" x2="122.892" y2="184" gradientUnits="userSpaceOnUse">
<stop stop-color="#83C949"/>
<stop offset="1" stop-color="#A24502"/>
</linearGradient>
<linearGradient id="paint2_linear_969_340" x1="39.1609" y1="0.0163574" x2="39.1609" y2="184" gradientUnits="userSpaceOnUse">
<stop stop-color="#83C949"/>
<stop offset="1" stop-color="#A24502"/>
</linearGradient>
<linearGradient id="paint3_linear_969_340" x1="81.0125" y1="36.3008" x2="81.0125" y2="84.5857" gradientUnits="userSpaceOnUse">
<stop stop-color="#83C949"/>
<stop offset="1" stop-color="#A24502"/>
</linearGradient>
</defs>
</svg>
