<svg width="121" height="50" viewBox="0 0 121 50" fill="none" xmlns="http://www.w3.org/2000/svg">
<path opacity="0.87" d="M50.9034 19.2027C50.9034 17.8423 51.8006 17.1748 52.7738 17.1748C55.3868 17.1748 55.7213 20.7432 57.873 20.7432C58.6663 20.7432 59.4874 20.5122 59.4874 19.4082C59.4874 18.2027 58.5396 17.5352 55.8734 16.1749C52.5685 14.4795 51.6206 12.5811 51.6206 10.5786C51.6206 7.39599 54.0562 5.11182 58.4889 5.11182C62.9215 5.11182 65.1771 7.13966 65.1771 9.14212C65.1771 10.2208 64.3839 11.0151 63.3575 11.0151C60.5139 11.0151 60.3593 7.67771 58.6156 7.67771C57.7438 7.67771 57.0772 8.11424 57.0772 9.1142C57.0772 10.1142 57.8984 11.2689 60.8965 12.5532C63.4842 13.6572 65.3546 15.1977 65.3546 18.02C65.3546 20.8422 63.2789 23.3066 58.0758 23.3066C54.0004 23.3066 50.9009 21.3549 50.9009 19.2001L50.9034 19.2027Z" fill="white"/>
<path opacity="0.87" d="M66.2822 27.1057C66.2822 26.6438 66.6928 26.3621 66.9995 25.9002C67.1794 25.6439 67.3061 25.3368 67.3061 24.9002L67.2808 14.4818C67.2808 13.4819 66.9741 13.0707 66.6142 12.7636C66.229 12.4312 65.7931 12.3017 65.7931 11.6342C65.7931 10.6089 69.2019 9.71045 70.7402 9.71045C71.3814 9.71045 71.792 10.1216 71.792 11.0962V11.5581H71.9466C72.7678 10.4287 74.2022 9.73583 75.7406 9.73583C78.8681 9.73583 81.3011 11.8144 81.3011 16.6137C81.3011 20.3598 79.2001 23.3115 75.4061 23.3115C74.1769 23.3115 73.3557 23.0297 72.6385 22.644V24.2099C72.6385 24.6972 72.9198 24.9535 73.2797 25.1337C73.7917 25.3901 74.2529 25.5449 74.2529 26.1591C74.2529 27.1844 72.2533 27.494 70.7174 27.7504C68.4365 28.1615 66.2848 28.3417 66.2848 27.1083L66.2822 27.1057ZM76.174 18.7152C76.174 16.7914 75.4061 13.0682 73.7917 13.0682C72.7931 13.0682 72.6385 13.992 72.6385 15.0707V15.3524C72.6385 18.5096 73.7917 20.7151 75.0208 20.7151C75.6367 20.7151 76.174 20.2786 76.174 18.7126V18.7152Z" fill="white"/>
<path opacity="0.87" d="M82.5555 21.9487C82.5555 20.9741 83.5287 20.9233 83.5287 19.8955V14.4541C83.5287 13.2739 83.1181 12.9668 82.7354 12.6572C82.4034 12.4262 82.0942 12.2206 82.0942 11.6826C82.0942 10.6572 85.503 9.75879 87.0414 9.75879C88.2706 9.75879 88.9118 10.4263 88.9118 11.1953V19.8955C88.9118 20.9208 89.885 20.9741 89.885 21.9487C89.885 22.8725 89.0385 22.9487 88.1413 22.9487H84.2966C83.3995 22.9487 82.553 22.8725 82.553 21.9487H82.5555ZM82.8622 5.67773C82.8622 4.01028 84.0913 2.93164 86.015 2.93164C87.9386 2.93164 89.1677 4.01028 89.1677 5.67773C89.1677 7.34518 87.9386 8.4492 86.015 8.4492C84.0913 8.4492 82.8622 7.34518 82.8622 5.67773Z" fill="white"/>
<path opacity="0.87" d="M106.082 21.7431C106.082 22.4613 105.722 22.9486 104.493 22.9486H99.9567C98.7529 22.9486 98.3676 22.5121 98.3676 21.8954C98.3676 21.1517 99.0088 20.9208 99.0088 20.3802C99.0088 20.2254 98.9581 20.0198 98.7529 19.7635L97.9317 18.5579L97.2905 18.7889V21.2025C97.2905 21.639 97.2398 22.0248 97.0599 22.3319C96.8292 22.7177 96.368 22.9486 95.4455 22.9486H92.6526C91.7554 22.9486 90.9089 22.8725 90.9089 21.9487C90.9089 20.9741 91.8821 20.9233 91.8821 19.8954V8.47455C91.8821 7.29439 91.4715 6.9873 91.0888 6.67766C90.7568 6.44671 90.4476 6.24113 90.4476 5.70308C90.4476 4.67774 93.8564 3.7793 95.3948 3.7793C96.624 3.7793 97.2652 4.44678 97.2652 5.21579L97.2905 16.0453C99.0595 15.6088 100.007 14.8144 100.649 14.1723C101.391 13.4541 100.317 12.9135 100.317 11.9135C100.317 10.477 101.394 9.75877 102.957 9.75877C104.291 9.75877 105.264 10.6572 105.264 11.9668C105.264 13.7129 103.829 15.2763 101.984 16.5098L104.265 19.563C104.856 20.3574 106.085 20.436 106.085 21.7456L106.082 21.7431Z" fill="white"/>
<path opacity="0.87" d="M108.338 25.8495C108.338 24.875 109.004 24.078 110.003 24.078C110.796 24.078 111.311 24.8724 112.385 24.8724C113.693 24.8724 114.41 23.6669 114.897 22.0756C114.692 22.1771 114.36 22.2811 113.795 22.2811C111.617 22.2811 110.616 21.1771 109.848 19.4589C109.081 17.5859 108.259 15.6875 107.542 13.8119C107.106 12.6318 105.928 12.8627 105.928 11.2968C105.928 10.5024 106.49 10.1166 107.902 10.1166H112.669C114.157 10.1166 114.413 10.6293 114.413 11.2207C114.413 12.7104 113.26 12.4262 113.26 13.4795C113.26 14.4287 113.901 15.9946 114.542 17.6113C114.747 18.1493 114.874 18.5097 115.49 18.5097C116.106 18.5097 116.337 17.7153 116.542 16.893C116.722 16.124 116.798 15.7129 116.823 15.2256C116.874 13.9947 115.771 13.2485 115.771 11.812C115.771 10.4516 116.745 9.7334 118.488 9.7334C120.232 9.7334 121 10.6826 121 11.9161C121 12.916 120.128 14.4058 119.743 15.7662C119.358 17.1773 118.896 18.5884 118.46 19.8726C117.999 21.2837 117.383 22.5933 116.821 23.7227C115.513 26.3673 113.873 28.0855 111.541 28.0855C109.646 28.0855 108.338 27.1363 108.338 25.8521V25.8495Z" fill="white"/>
<path opacity="0.87" d="M51.3468 39.4682C51.3468 38.4886 51.9931 38.0089 52.6951 38.0089C54.5782 38.0089 54.8189 40.5773 56.3674 40.5773C56.9402 40.5773 57.5307 40.4098 57.5307 39.6154C57.5307 38.7474 56.849 38.2652 54.9279 37.2856C52.5456 36.0648 51.8638 34.6968 51.8638 33.2552C51.8638 30.9635 53.6176 29.3188 56.811 29.3188C60.0043 29.3188 61.6289 30.7782 61.6289 32.2198C61.6289 32.9964 61.0561 33.57 60.3186 33.57C58.2708 33.57 58.1593 31.1665 56.9047 31.1665C56.2762 31.1665 55.7972 31.4812 55.7972 32.202C55.7972 32.9228 56.3877 33.7552 58.547 34.6791C60.4123 35.4734 61.7581 36.5825 61.7581 38.6155C61.7581 40.6484 60.2628 42.4224 56.517 42.4224C53.5821 42.4224 51.3493 41.0164 51.3493 39.4657L51.3468 39.4682Z" fill="white"/>
<path opacity="0.87" d="M62.4197 45.1638C62.4197 44.8313 62.7162 44.6283 62.9367 44.2958C63.066 44.1105 63.1572 43.8897 63.1572 43.575L63.1395 36.0702C63.1395 35.3494 62.919 35.0525 62.6605 34.8317C62.3842 34.5906 62.0699 34.4992 62.0699 34.0195C62.0699 33.281 64.5258 32.6338 65.6333 32.6338C66.0946 32.6338 66.3911 32.9307 66.3911 33.6312V33.9637H66.5026C67.0931 33.1515 68.1272 32.6516 69.2347 32.6516C71.4878 32.6516 73.239 34.149 73.239 37.6057C73.239 40.3036 71.726 42.4304 68.9939 42.4304C68.1069 42.4304 67.5164 42.2273 66.9994 41.9507V43.0776C66.9994 43.4278 67.2021 43.6131 67.4606 43.7425C67.8306 43.9278 68.1626 44.0395 68.1626 44.4811C68.1626 45.2196 66.7231 45.443 65.6156 45.6282C63.9733 45.9252 62.4222 46.0521 62.4222 45.1663L62.4197 45.1638ZM69.5464 39.1183C69.5464 37.7326 68.9914 35.0525 67.8306 35.0525C67.1109 35.0525 66.9994 35.7174 66.9994 36.4941V36.6971C66.9994 38.9711 67.8306 40.5599 68.7151 40.5599C69.1587 40.5599 69.5464 40.2452 69.5464 39.1183Z" fill="white"/>
<path opacity="0.87" d="M74.1413 41.4479C74.1413 40.7449 74.8433 40.7093 74.8433 39.9683V36.1055C74.8433 35.3288 74.5848 35.0344 74.3263 34.8289C74.0678 34.6081 73.7915 34.4964 73.7915 34.0522C73.7915 33.3137 76.1916 32.6665 77.3726 32.6665C78.0189 32.6665 78.2394 32.9431 78.2394 33.6639V34.5141H78.3509C78.7767 33.2579 79.7904 32.6665 80.6217 32.6665C81.8762 32.6665 82.4668 33.4787 82.4668 34.6817C82.4668 35.8847 81.8382 36.6029 80.6395 36.6029C79.9932 36.6029 79.8284 36.3999 79.2557 36.3999C78.9237 36.3999 78.7209 36.6029 78.7209 37.1587V39.9683C78.7209 40.7068 79.4229 40.7449 79.4229 41.4479C79.4229 42.1128 78.8147 42.1687 78.1684 42.1687H75.4008C74.7546 42.1687 74.1463 42.1128 74.1463 41.4479H74.1413Z" fill="white"/>
<path opacity="0.87" d="M93.281 38.5088V35.1079C93.281 34.7374 93.1137 34.5902 92.949 34.4607C92.7285 34.2932 92.47 34.2019 92.47 33.7958C92.47 33.4988 92.655 33.3161 93.0782 33.1867C94.6648 32.6867 95.5695 32.6309 96.0308 32.6309C96.9356 32.6309 97.1561 33.0369 97.1561 34.0166V37.9352C97.1561 38.9149 97.3588 39.524 98.0431 39.524C98.6894 39.524 98.8921 38.8591 98.8921 37.9352V35.1079C98.8921 34.7374 98.7249 34.5902 98.5601 34.4607C98.3396 34.2932 98.0811 34.2019 98.0811 33.7958C98.0811 33.4988 98.2661 33.3161 98.6894 33.1867C99.8527 32.7248 101.107 32.6309 101.624 32.6309C102.529 32.6309 102.767 33.075 102.767 34.0547V39.0266C102.767 39.8032 103.026 40.0798 103.284 40.2829C103.543 40.5037 103.819 40.6153 103.819 41.0595C103.819 41.798 101.419 42.4452 100.238 42.4452C99.5916 42.4452 99.3711 42.1483 99.3711 41.4478V40.7448H99.2596C98.7046 41.8158 97.6731 42.4274 96.3983 42.4274C94.201 42.4274 93.2784 40.9478 93.2784 38.5088H93.281Z" fill="white"/>
<path opacity="0.87" d="M105.114 37.3443V34.6642H104.691C104.247 34.6464 103.915 34.3495 103.915 33.8317C103.915 33.0932 104.359 32.9257 104.894 32.9257H105.152C107.608 32.9257 107.035 29.7456 108.308 29.7456C108.863 29.7456 108.972 30.1517 108.972 31.04V32.9257H110.578C111.095 32.9257 111.501 33.111 111.501 33.7201C111.501 34.3292 111.26 34.6617 110.487 34.6617H108.992V39.7275C108.992 40.3746 109.083 40.6894 109.491 40.6894C109.841 40.6894 110.064 40.3924 110.064 39.1564C110.064 38.3417 110.469 37.8621 111.189 37.8621C111.909 37.8621 112.332 38.324 112.332 39.2681C112.332 40.8772 111.445 42.4279 108.88 42.4279C105.079 42.4279 105.114 39.3417 105.114 37.3443Z" fill="white"/>
<path opacity="0.87" d="M112.682 39.9683C112.682 39.3592 113.181 38.8415 113.751 38.8415C115.411 38.8415 115.561 40.7094 116.501 40.7094C116.851 40.7094 117.092 40.5419 117.092 40.1562C117.092 39.6765 116.76 39.2679 115.356 38.6232C113.749 37.8847 112.938 37.1436 112.938 35.6284C112.938 33.6691 114.803 32.6514 116.833 32.6514C119.418 32.6514 120.784 33.7224 120.784 34.9432C120.784 35.5523 120.285 36.07 119.715 36.07C118.055 36.07 118.108 34.3873 116.983 34.3873C116.668 34.3873 116.448 34.5726 116.448 34.867C116.448 35.3112 116.539 35.57 118.22 36.4C119.771 37.1766 120.731 37.9329 120.731 39.4506C120.731 41.2069 119.124 42.4276 116.633 42.4276C114.142 42.4276 112.682 41.1891 112.682 39.9683Z" fill="white"/>
<path opacity="0.87" d="M83.9621 35.2909L83.9976 37.0878C84.0001 37.2376 83.8557 37.3467 83.7112 37.301L81.7192 36.6716C81.562 36.6208 81.4074 36.7579 81.4404 36.9203C82.0715 39.9507 83.4882 42.3363 87.1833 42.3363C90.8785 42.3363 92.1356 40.1715 92.9085 36.9431C92.9491 36.7756 92.7894 36.6335 92.6272 36.6894L90.843 37.3035C90.7112 37.3492 90.5693 37.2604 90.5541 37.1208L90.3488 35.2503C90.3311 35.0777 90.1283 34.994 89.9915 35.1031L88.5925 36.2401C88.486 36.3264 88.3289 36.296 88.263 36.1741L87.3836 34.5752C87.2974 34.4204 87.0744 34.4255 86.9958 34.5828L86.2025 36.1741C86.1417 36.296 85.9871 36.334 85.8781 36.2528L84.3119 35.1107C84.1649 35.0041 83.9596 35.1107 83.9647 35.2935L83.9621 35.2909Z" fill="white"/>
<path d="M42.9804 18.7099C42.0538 23.6423 38.2514 27.3186 33.295 28.0714C30.3885 28.5178 29.7155 30.9337 29.5756 31.6646C29.4401 32.3955 29.1866 34.8945 31.7303 36.365L36.6867 39.2317C37.5652 42.5141 38.4218 45.7134 39.3091 49.0396L28.142 42.5842C23.802 40.0764 21.5948 35.2665 22.5257 30.3341C23.4523 25.4017 27.2548 21.7297 32.2111 20.9726C35.1176 20.5262 35.7907 18.1103 35.9305 17.3794C36.066 16.6485 36.3195 14.1495 33.7758 12.6746L28.8195 9.80793C27.9453 6.53862 27.0712 3.26931 26.1971 0L37.3641 6.45546C41.7042 8.96325 43.9114 13.7731 42.9804 18.7055V18.7099Z" fill="url(#paint0_linear_969_1937)"/>
<path d="M0.209101 18.7099C1.13568 23.6423 4.93816 27.3187 9.89449 28.0714C12.801 28.5178 13.4741 30.9337 13.6139 31.6646C13.7494 32.3955 14.0029 34.8945 11.4592 36.3651L6.50285 39.2317C5.62435 42.5142 4.7677 45.7134 3.88046 49.0396L15.0475 42.5842C19.3876 40.0764 21.5947 35.2665 20.6638 30.3341C19.7372 25.4017 15.9347 21.7298 10.9784 20.9726C8.07192 20.5262 7.39884 18.1103 7.25898 17.3794C7.12349 16.6485 6.86999 14.1495 9.41371 12.6746L14.37 9.80794C15.2442 6.54301 16.1183 3.2737 16.9924 0.00439453L5.8254 6.45986C1.48533 8.97202 -0.717479 13.7775 0.209101 18.7099Z" fill="url(#paint1_linear_969_1937)"/>
<path d="M16.3413 11.0289L16.3981 13.9656C16.4024 14.2107 16.1664 14.3901 15.9304 14.3157L12.6743 13.2872C12.4164 13.2041 12.1629 13.4273 12.2197 13.6942C13.2512 18.6442 15.5677 22.5437 21.6035 22.5437C27.6394 22.5437 29.698 19.0074 30.9611 13.7293C31.0267 13.4579 30.7644 13.2216 30.4978 13.3135L27.5826 14.3201C27.3641 14.3945 27.1324 14.2501 27.1106 14.0181L26.774 10.9632C26.7434 10.6788 26.4113 10.5431 26.1927 10.7225L23.9069 12.5782C23.732 12.7183 23.4742 12.6701 23.3649 12.4732L21.927 9.86035C21.7871 9.60651 21.42 9.61526 21.2932 9.87348L19.9951 12.4732C19.8946 12.6701 19.6411 12.7314 19.4619 12.6045L16.9007 10.74C16.6603 10.565 16.3238 10.74 16.3325 11.0377L16.3413 11.0289Z" fill="url(#paint2_linear_969_1937)"/>
<defs>
<linearGradient id="paint0_linear_969_1937" x1="32.7531" y1="0" x2="32.7531" y2="49.0396" gradientUnits="userSpaceOnUse">
<stop stop-color="#83C949"/>
<stop offset="1" stop-color="#A24502"/>
</linearGradient>
<linearGradient id="paint1_linear_969_1937" x1="10.4372" y1="0.00439453" x2="10.4372" y2="49.0396" gradientUnits="userSpaceOnUse">
<stop stop-color="#83C949"/>
<stop offset="1" stop-color="#A24502"/>
</linearGradient>
<linearGradient id="paint2_linear_969_1937" x1="21.5915" y1="9.6748" x2="21.5915" y2="22.5437" gradientUnits="userSpaceOnUse">
<stop stop-color="#83C949"/>
<stop offset="1" stop-color="#A24502"/>
</linearGradient>
</defs>
</svg>
