<svg width="67" height="12" viewBox="0 0 67 12" fill="none" xmlns="http://www.w3.org/2000/svg">
<path d="M4.69519 2.70419C5.27573 1.56807 5.56599 1 5.99999 1C6.43399 1 6.72425 1.56806 7.30477 2.70419L7.45497 2.99812C7.61997 3.32097 7.70242 3.4824 7.83108 3.58891C7.95969 3.69542 8.11983 3.73495 8.4402 3.81402L8.73189 3.88601C9.8592 4.16428 10.4229 4.30341 10.557 4.77387C10.6911 5.2443 10.3069 5.73455 9.53828 6.71495L9.33945 6.9686C9.12106 7.2472 9.01184 7.3865 8.9627 7.55885C8.91362 7.7312 8.93012 7.91705 8.96312 8.2888L8.99318 8.6272C9.10937 9.9353 9.16749 10.5894 8.8164 10.8801C8.46527 11.1709 7.9375 10.9057 6.88196 10.3756L6.60889 10.2384C6.30895 10.0878 6.15899 10.0124 5.99999 10.0124C5.84099 10.0124 5.69103 10.0878 5.39109 10.2384L5.11802 10.3756C4.06247 10.9057 3.5347 11.1709 3.1836 10.8801C2.8325 10.5894 2.8906 9.9353 3.0068 8.6272L3.03686 8.2888C3.06988 7.91705 3.08639 7.7312 3.03726 7.55885C2.98814 7.3865 2.87894 7.2472 2.66054 6.9686L2.4617 6.71495C1.69315 5.73455 1.30887 5.2443 1.44297 4.77387C1.57708 4.30341 2.14076 4.16428 3.26811 3.88601L3.55977 3.81402C3.88013 3.73495 4.04031 3.69542 4.16892 3.58891C4.29753 3.4824 4.38003 3.32097 4.545 2.99812L4.69519 2.70419Z" fill="#D5AD47"/>
<path d="M18.0766 2.70419C18.7099 1.56807 19.0266 1 19.5 1C19.9735 1 20.2901 1.56806 20.9234 2.70419L21.0873 2.99812C21.2673 3.32097 21.3572 3.4824 21.4976 3.58891C21.6379 3.69542 21.8126 3.73495 22.1621 3.81402L22.4803 3.88601C23.7101 4.16428 24.325 4.30341 24.4713 4.77387C24.6176 5.2443 24.1984 5.73455 23.3599 6.71495L23.1431 6.9686C22.9048 7.2472 22.7856 7.3865 22.732 7.55885C22.6785 7.7312 22.6965 7.91705 22.7325 8.2888L22.7653 8.6272C22.892 9.9353 22.9554 10.5894 22.5724 10.8801C22.1894 11.1709 21.6137 10.9057 20.4622 10.3756L20.1643 10.2384C19.8371 10.0878 19.6735 10.0124 19.5 10.0124C19.3266 10.0124 19.163 10.0878 18.8358 10.2384L18.5379 10.3756C17.3863 10.9057 16.8106 11.1709 16.4276 10.8801C16.0446 10.5894 16.1079 9.9353 16.2347 8.6272L16.2675 8.2888C16.3035 7.91705 16.3215 7.7312 16.2679 7.55885C16.2143 7.3865 16.0952 7.2472 15.857 6.9686L15.6401 6.71495C14.8016 5.73455 14.3824 5.2443 14.5287 4.77387C14.675 4.30341 15.2899 4.16428 16.5198 3.88601L16.8379 3.81402C17.1874 3.73495 17.3622 3.69542 17.5025 3.58891C17.6428 3.4824 17.7328 3.32097 17.9127 2.99812L18.0766 2.70419Z" fill="#D5AD47"/>
<path d="M32.0766 2.70419C32.7099 1.56807 33.0266 1 33.5 1C33.9735 1 34.2901 1.56806 34.9234 2.70419L35.0873 2.99812C35.2673 3.32097 35.3572 3.4824 35.4976 3.58891C35.6379 3.69542 35.8126 3.73495 36.1621 3.81402L36.4803 3.88601C37.7101 4.16428 38.325 4.30341 38.4713 4.77387C38.6176 5.2443 38.1984 5.73455 37.36 6.71495L37.1431 6.9686C36.9048 7.2472 36.7857 7.3865 36.7321 7.55885C36.6785 7.7312 36.6965 7.91705 36.7325 8.2888L36.7653 8.6272C36.8921 9.9353 36.9555 10.5894 36.5725 10.8801C36.1894 11.1709 35.6137 10.9057 34.4622 10.3756L34.1643 10.2384C33.8371 10.0878 33.6735 10.0124 33.5 10.0124C33.3266 10.0124 33.163 10.0878 32.8358 10.2384L32.5379 10.3756C31.3863 10.9057 30.8106 11.1709 30.4276 10.8801C30.0446 10.5894 30.1079 9.9353 30.2347 8.6272L30.2675 8.2888C30.3035 7.91705 30.3215 7.7312 30.2679 7.55885C30.2143 7.3865 30.0952 7.2472 29.857 6.9686L29.6401 6.71495C28.8016 5.73455 28.3824 5.2443 28.5287 4.77387C28.675 4.30341 29.2899 4.16428 30.5198 3.88601L30.8379 3.81402C31.1874 3.73495 31.3622 3.69542 31.5025 3.58891C31.6428 3.4824 31.7328 3.32097 31.9127 2.99812L32.0766 2.70419Z" fill="#D5AD47"/>
<path d="M46.0766 2.70419C46.7099 1.56807 47.0266 1 47.5 1C47.9735 1 48.2901 1.56806 48.9234 2.70419L49.0873 2.99812C49.2673 3.32097 49.3572 3.4824 49.4976 3.58891C49.6379 3.69542 49.8126 3.73495 50.1621 3.81402L50.4803 3.88601C51.7101 4.16428 52.325 4.30341 52.4713 4.77387C52.6176 5.2443 52.1984 5.73455 51.3599 6.71495L51.1431 6.9686C50.9048 7.2472 50.7856 7.3865 50.732 7.55885C50.6785 7.7312 50.6965 7.91705 50.7325 8.2888L50.7653 8.6272C50.892 9.9353 50.9554 10.5894 50.5724 10.8801C50.1894 11.1709 49.6137 10.9057 48.4622 10.3756L48.1643 10.2384C47.8371 10.0878 47.6735 10.0124 47.5 10.0124C47.3266 10.0124 47.163 10.0878 46.8358 10.2384L46.5379 10.3756C45.3863 10.9057 44.8106 11.1709 44.4276 10.8801C44.0446 10.5894 44.1079 9.9353 44.2347 8.6272L44.2675 8.2888C44.3035 7.91705 44.3215 7.7312 44.2679 7.55885C44.2143 7.3865 44.0952 7.2472 43.857 6.9686L43.6401 6.71495C42.8016 5.73455 42.3824 5.2443 42.5287 4.77387C42.675 4.30341 43.2899 4.16428 44.5198 3.88601L44.8379 3.81402C45.1874 3.73495 45.3622 3.69542 45.5025 3.58891C45.6428 3.4824 45.7328 3.32097 45.9127 2.99812L46.0766 2.70419Z" fill="#D5AD47"/>
<path d="M59.6952 2.70419C60.2758 1.56807 60.566 1 61 1C61.434 1 61.7243 1.56806 62.3048 2.70419L62.455 2.99812C62.62 3.32097 62.7025 3.4824 62.8311 3.58891C62.9597 3.69542 63.1199 3.73495 63.4402 3.81402L63.7319 3.88601C64.8592 4.16428 65.4229 4.30341 65.557 4.77387C65.6912 5.2443 65.3069 5.73455 64.5383 6.71495L64.3395 6.9686C64.1211 7.2472 64.0119 7.3865 63.9627 7.55885C63.9136 7.7312 63.9301 7.91705 63.9631 8.2888L63.9932 8.6272C64.1094 9.9353 64.1675 10.5894 63.8164 10.8801C63.4653 11.1709 62.9375 10.9057 61.882 10.3756L61.6089 10.2384C61.309 10.0878 61.159 10.0124 61 10.0124C60.841 10.0124 60.6911 10.0878 60.3911 10.2384L60.1181 10.3756C59.0625 10.9057 58.5347 11.1709 58.1836 10.8801C57.8325 10.5894 57.8906 9.9353 58.0068 8.6272L58.0369 8.2888C58.0699 7.91705 58.0864 7.7312 58.0373 7.55885C57.9882 7.3865 57.879 7.2472 57.6606 6.9686L57.4617 6.71495C56.6932 5.73455 56.3089 5.2443 56.443 4.77387C56.5771 4.30341 57.1408 4.16428 58.2681 3.88601L58.5598 3.81402C58.8802 3.73495 59.0403 3.69542 59.169 3.58891C59.2976 3.4824 59.3801 3.32097 59.545 2.99812L59.6952 2.70419Z" fill="url(#paint0_linear_1031_260)"/>
<defs>
<linearGradient id="paint0_linear_1031_260" x1="56.1418" y1="5.7001" x2="65.4" y2="5.7001" gradientUnits="userSpaceOnUse">
<stop stop-color="#D5AD47"/>
<stop offset="1" stop-color="#3C2B00"/>
</linearGradient>
</defs>
</svg>
